<!--
  Tray idle icon — pure black claw on transparent. Electron treats this as
  a template image and auto-inverts for light/dark menu bar modes.
  Source: "Crab claw" by Lorc, CC BY 3.0,
  https://game-icons.net/1x1/lorc/crab-claw.html
-->
<svg xmlns="http://www.w3.org/2000/svg" viewBox="0 0 512 512">
  <path d="M181.206 36.325q-5.55-13.95-13.17-1.04l-40.85 69.184c-23.017 4.384-43.547 11.782-60.124 22.374-24.436 15.613-40.572 37.414-45.5 67.875-4.79 29.62 1.568 68.087 24.125 116.093 93.162 22.88 184.08-10.908 257.25-18.813 37.138-4.012 71.196-.898 96.344 22.97 22.33 21.19 36.21 56.808 41.908 113.436 29.246-35.682 44.538-69.065 49.343-99.594 5.543-35.207-2.526-66.97-20.31-95.593-8.52-13.708-19.368-26.618-32-38.626l-27.001-22.375c-8.637-6.278-17.765-12.217-27.314-17.782l-45.187-22.376a423.505 423.505 0 0 0-38.158-13.812l-66-14.78c-9.344-1.316-18.625-2.333-27.812-2.97l-25.544-64.175zM222 325.345c-39.146 7.525-82.183 14.312-127.156 11.686 47.403 113.454 207.056 224.082 260.125 87-101.18 33.84-95.303-49.595-132.97-98.686z"/>
</svg>
